<svg width="51" height="50" viewBox="0 0 51 50" fill="none" xmlns="http://www.w3.org/2000/svg">
<path d="M25.0463 32.0569C21.6462 32.0569 18.81 29.6499 18.1367 26.4518H6.8255C7.62503 35.7516 15.4267 43.0483 24.9285 43.0483C34.4303 43.0483 42.2404 35.7516 43.0315 26.4518H31.9559C31.2827 29.6583 28.4464 32.0569 25.0463 32.0569Z" fill="white"/>
<path d="M29.0861 42.577C36.6269 40.8096 42.3582 34.3545 43.0315 26.4518H38.571C38.1249 33.6223 34.3629 39.6987 29.0861 42.577Z" fill="#DFDFDF"/>
<path d="M29.2123 24.9958C29.2039 24.9958 29.2039 24.9958 29.2123 24.9958C29.2039 24.4824 29.1113 23.9943 28.943 23.5398C28.3539 21.9576 26.8306 20.8383 25.0463 20.8383C23.2621 20.8383 21.7388 21.966 21.1497 23.5398C20.9814 23.9943 20.8888 24.4824 20.8888 24.9958H20.8972C20.8972 25.5092 20.9898 25.9973 21.1581 26.4518C21.7472 28.034 23.2705 29.1534 25.0548 29.1534C26.839 29.1534 28.3623 28.0256 28.9514 26.4518C29.1197 26.0057 29.2123 25.5092 29.2123 24.9958Z" fill="white"/>
<path d="M25.0548 17.9431C28.4549 17.9431 31.2911 20.3501 31.9644 23.5482H43.2756C42.4761 14.24 34.6744 6.94324 25.1642 6.94324C15.654 6.94324 7.86069 14.24 7.06116 23.5398H18.1452C18.8184 20.3417 21.6547 17.9431 25.0548 17.9431Z" fill="#FF1C1C"/>
<path d="M38.571 23.5397H43.2672C42.577 15.5023 36.6521 8.95463 28.9177 7.33032C34.2872 10.1665 38.1165 16.3019 38.571 23.5397Z" fill="#DF1818"/>
<path d="M25.1641 6.94326C34.6743 6.94326 42.476 14.24 43.2672 23.5398H31.9559C31.2826 20.3417 28.4464 17.9347 25.0463 17.9347C21.6462 17.9347 18.81 20.3417 18.1367 23.5398H7.06113C7.86065 14.24 15.6624 6.94326 25.1641 6.94326ZM28.943 23.5398C29.1113 23.9943 29.2039 24.4824 29.2039 24.9958H29.2123C29.2123 25.5092 29.1197 25.9973 28.9514 26.4518C28.3623 28.034 26.8389 29.1533 25.0547 29.1533C23.2705 29.1533 21.7472 28.0256 21.1581 26.4518C20.9898 25.9973 20.8972 25.5092 20.8972 24.9958H20.8888C20.8888 24.4824 20.9813 23.9943 21.1497 23.5398C21.7388 21.9576 23.2621 20.8382 25.0463 20.8382C26.8305 20.8382 28.3538 21.966 28.943 23.5398ZM24.9285 43.0567C15.4183 43.0567 7.61659 35.76 6.82547 26.4602H18.1367C18.81 29.6583 21.6462 32.0653 25.0463 32.0653C28.4464 32.0653 31.2826 29.6583 31.9559 26.4602H43.0399C42.2404 35.7515 34.4387 43.0567 24.9285 43.0567ZM25.0463 3.47583C13.1628 3.47583 3.52637 13.1123 3.52637 24.9958C3.52637 36.8793 13.1628 46.5157 25.0463 46.5157C36.9298 46.5157 46.5747 36.8877 46.5747 24.9958C46.5747 13.1038 36.9383 3.47583 25.0463 3.47583Z" fill="black"/>
</svg>
