<svg width="58" height="58" viewBox="0 0 58 58" fill="none" xmlns="http://www.w3.org/2000/svg">
<path fill-rule="evenodd" clip-rule="evenodd" d="M32.4439 22.9037L39.6223 15.7253C32.9473 10.3705 23.1699 10.7885 16.9792 16.9792C10.849 23.1093 10.3793 32.7564 15.5698 39.4255L22.78 32.2153C21.4169 29.5801 21.8403 26.2602 24.0502 24.0503C26.3245 21.7759 29.7745 21.3938 32.4439 22.9037ZM24.7076 34.5304L17.6138 41.6242C24.2873 47.6532 34.5895 47.4521 41.0208 41.0208C47.3926 34.6491 47.649 24.4777 41.7901 17.8002L34.6813 24.9089C36.6566 27.6449 36.4127 31.4867 33.9497 33.9497C31.4257 36.4738 27.4537 36.6673 24.7076 34.5304ZM43.1421 14.8579C50.9526 22.6684 50.9526 35.3316 43.1421 43.1421C35.3316 50.9526 22.6683 50.9526 14.8579 43.1421C7.04738 35.3316 7.04738 22.6684 14.8579 14.8579C22.6683 7.04738 35.3316 7.04738 43.1421 14.8579ZM31.8284 26.1716C33.3905 27.7337 33.3905 30.2663 31.8284 31.8284C30.2663 33.3905 27.7337 33.3905 26.1716 31.8284C24.6095 30.2663 24.6095 27.7337 26.1716 26.1716C27.7337 24.6095 30.2663 24.6095 31.8284 26.1716Z" fill="#B4AED4" fill-opacity="0.1"/>
</svg>
